<svg width="16" height="16" viewBox="0 0 16 16" fill="none" xmlns="http://www.w3.org/2000/svg">
<g clip-path="url(#clip0_788_14541)">
<path d="M15.9998 8.82392V7.28239C15.9906 7.00881 15.9849 6.73595 15.9714 6.46308C15.9289 5.58777 15.9523 4.70326 15.8254 3.84071C15.5745 2.13971 14.6312 0.943345 12.9699 0.408239C12.4303 0.234468 11.8682 0.140627 11.3015 0.129702C9.11498 0.0985174 6.92708 0.100642 4.73988 0.124031C3.72566 0.134662 2.75113 0.360751 1.90488 0.968148C0.668825 1.85763 0.161361 3.12913 0.115293 4.59411C0.0628454 6.28447 0.0593025 7.97696 0.0585938 9.66875C0.0585938 10.4292 0.0833981 11.1933 0.158525 11.9495C0.377529 14.1651 1.88575 15.6633 4.09917 15.8979C4.52017 15.9426 4.944 15.9688 5.36712 16H10.6827C11.1137 15.9653 11.5453 15.9398 11.9741 15.8937C13.8466 15.6924 15.2591 14.5414 15.7078 12.7752C15.8665 12.1487 15.897 11.4853 15.9417 10.8353C15.9898 10.1663 15.9835 9.4944 15.9998 8.82392ZM1.54129 8.0443H1.44703C1.49381 6.76855 1.51082 5.4928 1.5987 4.22485C1.65895 3.36018 2.03955 2.62521 2.77735 2.11774C3.25049 1.79678 3.80487 1.61641 4.37629 1.59752C5.39263 1.54861 6.41111 1.51318 7.42887 1.51601C8.83574 1.52027 10.244 1.54295 11.6502 1.59965C12.3802 1.62941 13.0528 1.87322 13.5964 2.40124C14.1556 2.94485 14.4065 3.6295 14.4469 4.37865C14.5064 5.4035 14.5348 6.42977 14.532 7.45745C14.5277 8.87495 14.5263 10.2924 14.4419 11.705C14.347 13.3068 13.3618 14.3274 11.7671 14.4556C9.33753 14.6534 6.89802 14.635 4.46701 14.479C2.58245 14.3578 1.61713 13.289 1.54626 11.3903C1.51011 10.2769 1.54484 9.16058 1.54484 8.0443H1.54129Z" fill="currentColor"/>
<path d="M3.92782 8.04497C3.93021 8.85421 4.17251 9.64457 4.62408 10.3161C5.07565 10.9876 5.71622 11.5102 6.46477 11.8177C7.21332 12.1251 8.03624 12.2037 8.82946 12.0435C9.62268 11.8833 10.3506 11.4915 10.9211 10.9176C11.4917 10.3437 11.8792 9.61348 12.0347 8.81932C12.1903 8.02517 12.1068 7.20272 11.7949 6.456C11.4831 5.70927 10.9567 5.0718 10.2826 4.62419C9.60839 4.17658 8.81662 3.93894 8.00738 3.94132C7.4695 3.94093 6.93687 4.04699 6.44017 4.25338C5.94347 4.45977 5.49252 4.76241 5.1133 5.14386C4.73409 5.52531 4.43411 5.97804 4.23065 6.47595C4.02719 6.97386 3.92427 7.50711 3.92782 8.04497ZM5.368 8.02654C5.37212 7.32373 5.65416 6.65109 6.15252 6.15551C6.65089 5.65993 7.32511 5.38167 8.02794 5.38149C9.4837 5.39142 10.6836 6.60054 10.6737 8.0478C10.6723 8.39618 10.6023 8.74087 10.4677 9.0622C10.3331 9.38352 10.1365 9.67519 9.88917 9.92054C9.64185 10.1659 9.34861 10.3601 9.02622 10.4922C8.70383 10.6242 8.35859 10.6914 8.01022 10.69C7.66184 10.6886 7.31715 10.6186 6.99582 10.484C6.6745 10.3494 6.38284 10.1528 6.13748 9.9055C5.89213 9.65817 5.6979 9.36495 5.56587 9.04255C5.43384 8.72016 5.3666 8.37492 5.368 8.02654Z" fill="currentColor"/>
<path d="M12.2763 11.3286C12.0874 11.3272 11.9024 11.3818 11.7445 11.4853C11.5866 11.5889 11.4629 11.7369 11.3889 11.9107C11.315 12.0844 11.2941 12.2762 11.3289 12.4618C11.3637 12.6474 11.4527 12.8185 11.5846 12.9537C11.7165 13.0888 11.8854 13.1819 12.0701 13.2212C12.2548 13.2605 12.447 13.2443 12.6225 13.1746C12.798 13.1049 12.949 12.9848 13.0564 12.8295C13.1637 12.6742 13.2228 12.4905 13.226 12.3017C13.2288 12.1751 13.2064 12.0492 13.1599 11.9314C13.1135 11.8136 13.044 11.7062 12.9556 11.6156C12.8671 11.525 12.7615 11.4529 12.6448 11.4036C12.5282 11.3544 12.4029 11.3288 12.2763 11.3286Z" fill="currentColor"/>
</g>
<defs>
<clipPath id="clip0_788_14541">
<rect width="16" height="16" fill="white" transform="matrix(1 0 0 -1 0 16)"/>
</clipPath>
</defs>
</svg>
