<svg width="526px" height="127px" viewBox="0 0 526 127" version="1.1" xmlns="http://www.w3.org/2000/svg" xmlns:xlink="http://www.w3.org/1999/xlink">
  <g id="vallem_logo" fill="currentColor" fill-rule="nonzero">
      <path d="M511.282,38.016 C506.655,34.747 500.737,32.916 493.355,32.916 C488.758197,32.9560329 484.20582,33.8200395 479.914,35.467 C469.755,39.585 462.004,48.631 458.001,62.017 L457.921,61.817 C455.832,44.453 445.098,34.11 427.285,33.065 C426.152,32.973 424.993,32.911 423.785,32.911 C407.565,32.911 394.217,43.492 388.577,62.092 L388.577,34.719 L388.55,34.719 L388.55,34.683 L381.176,34.683 L377.161,34.719 L377.161,124.732 L388.732,124.732 L388.732,83.867 C388.732,68.037 392.398,56.989 399.382,50.335 C404.744,45.228 414.214,42.896 423.217,43.047 L423.254,43.047 C439.985,44.355 446.76,55.305 446.76,72.328 L446.76,124.728 L458.33,124.728 L458.33,82.02 C458.749,67.334 462.818,57.408 468.449,51.233 C473.266604,45.9314559 480.099506,42.9115994 487.263,42.918 C491.041671,42.9601891 494.795558,43.5344991 498.414,44.624 C509.628,48.488 514.431,58.782 514.431,73.296 L514.431,124.731 L526.001,124.731 L526.001,69.758 C526.001,55.234 520.94,44.072 511.282,38.016 Z" id="Path_1"></path>
      <polygon id="Path_2" points="218.421 0 218.421 124.732 206.851 124.732 206.851 0"></polygon>
      <polygon id="Path_3" points="252.565 0 252.565 124.732 240.995 124.732 240.995 0"></polygon>
      <path d="M359.723,74.545 C359.341,64.115 356.323,54.963 350.762,47.912 C350.704,47.837 348.794,45.647 348.292,45.086 C348,44.762 346.11,43.008 345.666,42.633 L345.591,42.57 C337.929,36.121 327.669,32.914 316.028,32.914 C314.744,32.914 313.492,32.973 312.256,33.06 C285.224,34.648 269.919,55.633 269.919,80.046 C269.919,105.926 284.381,126.338 315.568,126.338 L316.184,126.333 C319.824294,126.303936 323.454343,125.942772 327.029,125.254 C344.31,121.862 354.697,110.554 358.965,94.675 L347.55,91.942 C343.857,106.726 333.889,115.731 315.243,115.731 C303.836,115.731 295.15,112.356 289.529,105.603 C284.162,99.168 281.46,91.103 281.218,81.31 L359.767,81.31 L359.767,80.345 C359.829667,78.349 359.815,76.4156667 359.723,74.545 Z M315.57,43.559 C333.136,43.43 343.747,52.05 347.153,66.254 C347.192,66.437 347.502,68.026 347.621,68.644 C348.008,70.644 348.308,75.537 348.315,75.844 L281.342,75.844 C282.864,57.163 295.186,43.559 315.569,43.559 L315.57,43.559 Z" id="Path_4"></path>
      <path d="M184.843,115.578 C180.178,115.578 178.087,113.812 178.087,107.378 L178.087,64.625 C178.087,47.967 168.734,35.995 149.06,33.476 C146.408085,33.0995619 143.732487,32.9147498 141.054,32.9227356 C139.621,32.9227356 138.235,32.987 136.878,33.089 C118.836,34.142 105.266,42.311 96.436,57.875 L106.567,63.661 C113.635,48.875 125.367,43.086 140.64,43.086 C150.607,43.086 157.512,45.177 161.213,49.516 C163.84975,52.3224192 165.665703,55.7986725 166.463,59.566 C167.976,69.232 152.436,71.987 133.818,76.175 C124.653,78.265 116.618,80.516 110.667,83.891 C102.783,88.235 95.308,94.904 95.308,105.453 C95.3212132,110.993535 97.5167487,116.30579 101.419,120.239 C108.936,127.609 126.573,126.196 128.519,126.067 C146.649582,124.654816 161.952932,112.036299 166.794,94.507 L166.794,94.514 C166.748,100.907 166.68,108.565 166.68,109.634 C166.68,121.205 171.338,126.348 181.469,126.348 C185.326,126.348 188.7,125.707 190.469,124.582 L190.469,114.132 C188.79202,115.192781 186.823644,115.698695 184.843,115.578 L184.843,115.578 Z M166.418,85.79 C161.406,106.701 146.071,116.542 129.224,116.542 C114.435,116.542 106.836,110.275 106.884765,101.112 C106.921,94.322 109.112,87.29 135.264,81.321 C152.256,77.443 162.941,74.521 166.998,68.206 L166.998,81.707 C166.862,83.116 166.66,84.47 166.418,85.79 Z" id="Path_5"></path>
      <polygon id="Path_6" points="34.882 124.732 23.467 124.732 0 34.719 11.734 34.719 29.904 105.989 30.947 110.129 32.821 106.706 80.557 34.718 94.225 34.718"></polygon>
  </g>
</svg>
