<svg id="Logo_otium" data-name="Logo otium" xmlns="http://www.w3.org/2000/svg" xmlns:xlink="http://www.w3.org/1999/xlink" width="183.831" height="29.548" viewBox="0 0 183.831 29.548">
  <defs>
    <clipPath id="clip-path">
      <rect id="Rectangle_145" data-name="Rectangle 145" width="183.831" height="29.548" fill="none"/>
    </clipPath>
  </defs>
  <rect id="Rectangle_141" data-name="Rectangle 141" width="0.339" height="29.349" transform="translate(136.262 0.199)" fill="currentColor"/>
  <rect id="Rectangle_142" data-name="Rectangle 142" width="0.415" height="4.215" transform="translate(147.796 12.609)" fill="currentColor"/>
  <path id="Path_829" data-name="Path 829" d="M883.061,78.622V74.407h.453l1.233,2.3.365.761.365-.761,1.233-2.3h.453v4.215h-.409V75.929l.038-.937-.4.868-1.076,1.988h-.4l-1.076-1.988-.409-.868.05.937v2.692Z" transform="translate(-733.421 -61.798)" fill="currentColor"/>
  <path id="Path_830" data-name="Path 830" d="M915.694,78.622V74.407h.453l1.233,2.3.365.761.365-.761,1.233-2.3h.453v4.215h-.409V75.929l.038-.937-.4.868-1.076,1.988h-.4l-1.076-1.988-.409-.868.05.937v2.692Z" transform="translate(-760.524 -61.798)" fill="currentColor"/>
  <g id="Group_335" data-name="Group 335">
    <g id="Group_334" data-name="Group 334" clip-path="url(#clip-path)">
      <path id="Path_831" data-name="Path 831" d="M946.4,76.2a2.008,2.008,0,1,1,2,2.177,2.02,2.02,0,0,1-2-2.177m3.573,0a1.583,1.583,0,1,0-1.566,1.787A1.586,1.586,0,0,0,949.97,76.2" transform="translate(-786.025 -61.49)" fill="currentColor"/>
      <path id="Path_832" data-name="Path 832" d="M976.5,78.622V74.407h1.655c.855,0,1.277.428,1.277,1.069,0,.44-.258.868-1.013.95.893.094,1.2.541,1.2,1.069,0,.711-.51,1.126-1.422,1.126Zm.415-3.85v1.5h1.088c.591,0,1.006-.176,1.006-.749s-.415-.755-.988-.755Zm0,1.868v1.617h1.214c.711,0,1.07-.239,1.07-.812s-.484-.805-1.133-.805Z" transform="translate(-811.03 -61.798)" fill="currentColor"/>
      <rect id="Rectangle_143" data-name="Rectangle 143" width="0.415" height="4.215" transform="translate(169.727 12.609)" fill="currentColor"/>
      <path id="Path_833" data-name="Path 833" d="M1012.477,78.622V74.407h.415v3.85h2.265v.365Z" transform="translate(-840.907 -61.798)" fill="currentColor"/>
      <rect id="Rectangle_144" data-name="Rectangle 144" width="0.415" height="4.215" transform="translate(174.954 12.609)" fill="currentColor"/>
      <path id="Path_834" data-name="Path 834" d="M1043.327,78.622V74.407h2.831v.365h-2.416v1.516h2.007v.371h-2.007v1.6h2.416v.365Z" transform="translate(-866.53 -61.798)" fill="currentColor"/>
      <path id="Path_835" data-name="Path 835" d="M1065.566,78.622V74.407h1.743a1.242,1.242,0,0,1,1.415,1.258,1.154,1.154,0,0,1-1.2,1.183.931.931,0,0,1,.522.459l.78,1.315h-.484l-.774-1.315a.858.858,0,0,0-.83-.428h-.761v1.743Zm.415-3.85V76.54h1.271c.591,0,1.051-.239,1.051-.875,0-.654-.459-.893-1.057-.893Z" transform="translate(-885 -61.798)" fill="currentColor"/>
      <path id="Path_836" data-name="Path 836" d="M192.653,12.942C192.653,5.681,197.469,0,204.617,0s11.964,5.681,11.964,12.942c0,7.336-4.816,13.017-11.964,13.017s-11.964-5.681-11.964-13.017m21.37,0c0-6.095-3.424-10.647-9.368-10.647-5.982,0-9.406,4.552-9.406,10.647,0,6.17,3.424,10.685,9.406,10.685,5.944,0,9.368-4.515,9.368-10.685" transform="translate(-160.007)" fill="currentColor"/>
      <path id="Path_837" data-name="Path 837" d="M475.759,56.556V44.4H478.2V56.029c0,2.9,1.354,4.7,4.44,4.7,3.913,0,5.418-2.746,5.418-5.907V44.4h2.445V62.463h-2.445V57.309c-.64,3.01-2.671,5.531-6.4,5.531-3.537,0-5.907-2.107-5.907-6.283" transform="translate(-395.139 -36.879)" fill="currentColor"/>
      <path id="Path_838" data-name="Path 838" d="M586.3,60.619V42.56h2.483V47.6c.639-2.972,2.633-5.418,5.982-5.418,3.273,0,5.192,1.844,5.38,5.493.6-2.972,2.671-5.493,6.057-5.493,3.461,0,5.418,2.069,5.418,6.208V60.619h-2.483V48.956c0-3.16-1.392-4.7-4.176-4.7-3.236,0-4.778,2.784-4.778,5.907V60.619h-2.445V48.956c0-3.16-1.392-4.7-4.214-4.7-3.2,0-4.74,2.784-4.74,5.907V60.619Z" transform="translate(-486.948 -35.036)" fill="currentColor"/>
      <path id="Path_839" data-name="Path 839" d="M445.235,44.117h-2.406v4.849l2.4-1.29Z" transform="translate(-367.789 -36.641)" fill="currentColor"/>
      <path id="Path_840" data-name="Path 840" d="M430.678,86.387V72.73L428.2,73.992l.073,12.395Z" transform="translate(-355.638 -60.405)" fill="currentColor"/>
      <path id="Path_841" data-name="Path 841" d="M352.891,36.978a3.915,3.915,0,0,1-3.133,1.77c-1.58,0-2.935-.715-2.935-3.311V24.564h6.057V22.645h-6.057V18.206l-2.445,1.844v2.6h-2.935v1.919h2.935v11.55a4.63,4.63,0,0,0,4.891,5,6.262,6.262,0,0,0,3.623-1.076Z" transform="translate(-283.584 -15.121)" fill="currentColor"/>
      <path id="Path_842" data-name="Path 842" d="M75.6,45.144l.012,16.631h3.7V43.238Z" transform="translate(-62.79 -35.911)" fill="currentColor"/>
      <path id="Path_843" data-name="Path 843" d="M0,83.981,0,94.029h3.7V82.074Z" transform="translate(0 -68.167)" fill="currentColor"/>
      <path id="Path_844" data-name="Path 844" d="M97.49.571V7.8l3.624-1.949.013-5.281Z" transform="translate(-80.97 -0.474)" fill="currentColor"/>
      <path id="Path_845" data-name="Path 845" d="M21.881,14.382,25.5,12.521,25.517.571H21.881Z" transform="translate(-18.173 -0.474)" fill="currentColor"/>
    </g>
  </g>
</svg>
